<svg width="18" height="18" viewBox="0 0 18 18" fill="none" xmlns="http://www.w3.org/2000/svg">
<path d="M1.72719 6.80986L7.74188 9.90861C8.11804 10.1064 8.54616 10.2184 9 10.2184C9.4538 10.2184 9.88191 10.1064 10.2581 9.90861L16.2728 6.80986C16.7042 6.58299 16.9983 6.13048 16.9983 5.60923C16.9983 5.08798 16.7042 4.63543 16.2728 4.40859L10.2581 1.30985C9.88191 1.11202 9.4538 1.00001 9 1.00001C8.54616 1.00001 8.11804 1.11202 7.74188 1.30985L1.72719 4.40859C1.29579 4.63543 1.00165 5.08798 1.00165 5.60923C1.00165 6.13048 1.29579 6.58299 1.72719 6.80986Z" stroke="#8E8C91" stroke-width="1.5" stroke-miterlimit="10" stroke-linecap="round" stroke-linejoin="round"/>
<path d="M1.00165 13.071L7.74188 16.6869C8.11808 16.8847 8.54616 16.9967 9 16.9967C9.45383 16.9967 9.88191 16.8847 10.2581 16.6869L16.9983 13.071" stroke="#8E8C91" stroke-width="1.5" stroke-miterlimit="10" stroke-linecap="round" stroke-linejoin="round"/>
<path d="M1.00165 9.68185L7.74188 13.2977C8.11808 13.4955 8.54616 13.6075 9 13.6075C9.45383 13.6075 9.88191 13.4955 10.2581 13.2977L16.9983 9.68185" stroke="#8E8C91" stroke-width="1.5" stroke-miterlimit="10" stroke-linecap="round" stroke-linejoin="round"/>
</svg>
