<svg width="20" height="20" viewBox="0 0 20 20" fill="none" xmlns="http://www.w3.org/2000/svg">
<path fill-rule="evenodd" clip-rule="evenodd" d="M3.99791 5.7467C3.99791 2.69709 6.4933 0.200012 9.54275 0.200012C12.592 0.200012 15.0823 2.69685 15.0823 5.7467C15.0823 7.57332 14.1852 9.19534 12.8111 10.2061L12.5131 10.4253L12.8596 10.5546C13.4287 10.767 13.9752 11.011 14.476 11.3209C14.6872 11.4504 14.7856 11.6174 14.815 11.7822C14.8452 11.9518 14.8049 12.1352 14.7088 12.292C14.6126 12.4487 14.4674 12.5678 14.3025 12.6177C14.1424 12.6662 13.949 12.6543 13.7379 12.5249C12.562 11.7972 11.1798 11.3728 9.69124 11.3728C5.42668 11.3728 1.98754 14.81 1.98754 19.0747L1.98764 19.0791C1.99327 19.3328 1.90343 19.5072 1.77832 19.6204C1.64928 19.7371 1.46945 19.8001 1.28255 19.8001C1.09566 19.8001 0.915826 19.7371 0.786786 19.6204C0.661684 19.5072 0.571891 19.3328 0.577521 19.0791V19.0747C0.577521 15.246 2.95778 11.9625 6.31522 10.6166L6.65652 10.4797L6.35619 10.2676C4.93262 9.26191 3.99791 7.6103 3.99791 5.7467ZM9.54275 1.61188C7.25054 1.61188 5.40798 3.45448 5.40798 5.7467C5.40798 8.03939 7.25101 9.87431 9.54275 9.87431C11.8348 9.87431 13.6722 8.03904 13.6722 5.7467C13.6722 3.45483 11.8353 1.61188 9.54275 1.61188Z" fill="#8E8C91"/>
<path d="M15.9931 12.874C16.3883 12.8701 16.7096 13.1921 16.705 13.5874L16.705 13.5897V15.5998H18.7168C18.9645 15.5998 19.1356 15.6907 19.2468 15.8158C19.3612 15.9445 19.4227 16.1218 19.4227 16.3057C19.4227 16.4895 19.3612 16.6669 19.2468 16.7956C19.1356 16.9207 18.9645 17.0116 18.7168 17.0116H16.705V19.0194C16.6825 19.936 15.3174 19.936 15.2949 19.0194V17.0116L13.2849 17.0113L13.2753 17.0118C13.0274 17.0236 12.8522 16.9408 12.7358 16.8214C12.6161 16.6985 12.5475 16.5248 12.5409 16.3419C12.5344 16.1591 12.5902 15.979 12.7037 15.8442C12.8137 15.7134 12.9879 15.6128 13.2463 15.5998H15.2949L15.2949 13.5897L15.2949 13.5874C15.2904 13.1969 15.6042 12.8767 15.9931 12.874Z" fill="#8E8C91"/>
</svg>
