<svg width="20" height="20" viewBox="0 0 20 20" fill="none" xmlns="http://www.w3.org/2000/svg">
<path d="M16.9317 1.71102C15.9633 0.744356 14.3952 0.744356 13.4268 1.71102L12.5494 2.59318L3.21011 11.9276L3.19027 11.9476C3.18546 11.9524 3.18546 11.9575 3.18034 11.9575C3.17042 11.9724 3.15553 11.9871 3.14576 12.002C3.14576 12.0069 3.14065 12.0069 3.14065 12.0119C3.13072 12.0268 3.12592 12.0367 3.11584 12.0516C3.11103 12.0566 3.11103 12.0614 3.10607 12.0665C3.1011 12.0814 3.09614 12.0913 3.09103 12.1062C3.09103 12.111 3.08622 12.111 3.08622 12.1161L1.0141 18.3472C0.953317 18.5246 0.999526 18.7211 1.13304 18.8527C1.22685 18.9453 1.35338 18.9971 1.48503 18.9966C1.53884 18.9957 1.59218 18.9873 1.64366 18.9718L7.86994 16.8947C7.87474 16.8947 7.87474 16.8947 7.87986 16.8899C7.89552 16.8853 7.91056 16.8786 7.92436 16.8699C7.92824 16.8694 7.93165 16.8677 7.93444 16.8651C7.94917 16.8552 7.96902 16.8451 7.98391 16.8352C7.99864 16.8254 8.01368 16.8105 8.02857 16.8006C8.03353 16.7955 8.03833 16.7955 8.03833 16.7907C8.04345 16.7857 8.05338 16.7809 8.05834 16.7708L18.275 6.55413C19.2417 5.58576 19.2417 4.0176 18.275 3.04938L16.9317 1.71102ZM7.71131 15.7297L4.26114 12.2797L12.8965 3.64436L16.3467 7.09437L7.71131 15.7297ZM3.77517 13.1967L6.7893 16.2107L2.2633 17.7176L3.77517 13.1967ZM17.5762 5.86006L17.0506 6.39054L13.6003 2.94021L14.1309 2.4099C14.7113 1.82996 15.6521 1.82996 16.2327 2.4099L17.581 3.75817C18.157 4.34121 18.1548 5.27982 17.5762 5.86006Z" fill="#8E8C91" stroke="#8E8C91" stroke-width="0.4"/>
</svg>
